<svg id="Capa_1" data-name="Capa 1" xmlns="http://www.w3.org/2000/svg" viewBox="0 0 182.12 39.64"><defs><style>.cls-1{fill:#4897c2;}.cls-2{fill:#fff;}</style></defs><title>logo</title><path class="cls-1" d="M7.78,20.53A8.65,8.65,0,0,1,22.4,14.26l.35.34.35-.35,2.62-2.62.36-.36-.37-.36a13.37,13.37,0,1,0-9.58,23h.52V29.2l-.49,0A8.6,8.6,0,0,1,7.78,20.53Z" transform="translate(-3.07 -3.06)"/><path class="cls-1" d="M49.79,11.07a13.29,13.29,0,0,0-9.21-3.91h-.51v4.71h.49a8.66,8.66,0,1,1-6.14,15l-.36-.34-.34.35L31.1,29.46l-.36.37.37.35A13.36,13.36,0,0,0,49.79,11.07Z" transform="translate(-3.07 -3.06)"/><path class="cls-1" d="M34.59,13.19v4.87c-2.05.76-3.59,2.66-5.23,4.65-2.16,2.65-4.4,5.4-8.08,5.56h-.1V23.56c1.53-.13,2.93-1.85,4.55-3.82,2.18-2.67,4.66-5.7,8.78-6.54Z" transform="translate(-3.07 -3.06)"/><path class="cls-2" d="M76,8.45a3,3,0,0,1,2.07-.71,7.73,7.73,0,0,1,2.76.67l1-4.39a9.43,9.43,0,0,0-4.1-1,8.9,8.9,0,0,0-3.95.88,6.91,6.91,0,0,0-2.91,2.61,7.76,7.76,0,0,0-1.08,4.2v2.13H66.84v4h2.93V34.33h5.44V16.86h5.6v-4h-5.6v-2.3A2.67,2.67,0,0,1,76,8.45ZM86,3.31v31h5.43v-31Z" transform="translate(-3.07 -3.06)"/><path class="cls-2" d="M118.35,17.21a10.33,10.33,0,0,0-4.14-4,12.74,12.74,0,0,0-6.12-1.43,13,13,0,0,0-6.19,1.43,10.19,10.19,0,0,0-4.16,4,11.62,11.62,0,0,0-1.49,5.92,11.82,11.82,0,0,0,1.49,6,10.05,10.05,0,0,0,4.16,4,13,13,0,0,0,6.19,1.42,12.74,12.74,0,0,0,6.12-1.42,10.18,10.18,0,0,0,4.14-4,11.82,11.82,0,0,0,1.49-6A11.62,11.62,0,0,0,118.35,17.21Zm-5.75,10.9A5.9,5.9,0,0,1,108.09,30a6,6,0,0,1-4.6-1.88,6.87,6.87,0,0,1-1.76-4.9,6.84,6.84,0,0,1,1.76-4.89,6,6,0,0,1,4.6-1.88,5.87,5.87,0,0,1,4.51,1.88,6.84,6.84,0,0,1,1.76,4.89A6.87,6.87,0,0,1,112.6,28.11Z" transform="translate(-3.07 -3.06)"/><path class="cls-2" d="M153.87,12l-5.35,16.9L143.13,12h-5.49l-5.3,16.9L126.85,12l-5.6,0,8.2,22.32H135l5.31-15.76,5.35,15.76h5.57L159.35,12Z" transform="translate(-3.07 -3.06)"/><path class="cls-2" d="M179.71,12,173.9,28.23,167.54,12H161.9l9.24,22-.67,1.46a3.42,3.42,0,0,1-3.26,2.26,3.78,3.78,0,0,1-1.42-.27,7.1,7.1,0,0,1-1.47-.86L162,40.69a9.25,9.25,0,0,0,2.62,1.53,8.55,8.55,0,0,0,2.94.48,7.74,7.74,0,0,0,4.63-1.4,8.79,8.79,0,0,0,3-4.16l10-25.18Z" transform="translate(-3.07 -3.06)"/></svg>