<?xml version="1.0" encoding="utf-8"?>
<!-- Generator: Adobe Illustrator 25.2.3, SVG Export Plug-In . SVG Version: 6.00 Build 0)  -->
<svg version="1.1" xmlns="http://www.w3.org/2000/svg" xmlns:xlink="http://www.w3.org/1999/xlink" x="0px" y="0px"
	 viewBox="0 0 77.12 77.12" style="enable-background:new 0 0 77.12 77.12;" xml:space="preserve">
<style type="text/css">
	.st0{display:none;}
	.st1{opacity:0.2;clip-path:url(#SVGID_2_);}
	.st2{opacity:0.2;}
	.st3{clip-path:url(#SVGID_4_);}
	.st4{fill:#6693BC;}
	.st5{fill:#F6F6F6;}
	.st6{opacity:0.08;fill:#6693BC;}
	.st7{fill:#6691BA;}
	.st8{clip-path:url(#SVGID_6_);}
	.st9{clip-path:url(#SVGID_6_);fill:#606060;}
	.st10{fill:#CCBDA7;}
	.st11{fill:#FFFFFF;}
	.st12{clip-path:url(#SVGID_6_);fill:#CCBDA7;}
	.st13{fill:#5A5A5A;}
	.st14{fill:#D92D0B;}
	.st15{fill:url(#SVGID_9_);}
	.st16{fill:#F0DC3C;}
	.st17{fill:url(#SVGID_10_);}
	.st18{fill:#606060;}
	.st19{fill:#393939;}
	.st20{clip-path:url(#SVGID_6_);fill:#5A5A5A;}
	.st21{clip-path:url(#SVGID_12_);}
	.st22{opacity:0.44;clip-path:url(#SVGID_12_);fill:#606060;}
	.st23{clip-path:url(#SVGID_12_);fill:#EABE36;}
	.st24{clip-path:url(#SVGID_12_);fill:#E6E6E6;}
	.st25{fill:none;stroke:#FFFFFF;stroke-miterlimit:10;}
	.st26{clip-path:url(#SVGID_12_);fill:#68B3B6;}
	.st27{clip-path:url(#SVGID_12_);fill:none;stroke:#606060;stroke-width:0.25;stroke-miterlimit:10;}
	.st28{fill:#76B1BB;}
	.st29{clip-path:url(#SVGID_16_);}
	.st30{clip-path:url(#SVGID_20_);}
	.st31{clip-path:url(#SVGID_24_);}
	.st32{opacity:0.39;}
	.st33{fill:url(#SVGID_27_);}
	.st34{fill:url(#SVGID_28_);}
	.st35{fill:none;}
	.st36{opacity:0.32;}
	.st37{fill:#8DAFCC;}
	.st38{clip-path:url(#SVGID_34_);}
	.st39{clip-path:url(#SVGID_36_);}
	.st40{fill:#80A8CA;}
	.st41{opacity:0.85;}
	.st42{fill:#1E345F;}
	.st43{clip-path:url(#SVGID_38_);fill:#1E345F;}
	.st44{clip-path:url(#SVGID_38_);fill:#1F3560;}
	.st45{clip-path:url(#SVGID_38_);fill:#203762;}
	.st46{clip-path:url(#SVGID_38_);fill:#213863;}
	.st47{clip-path:url(#SVGID_38_);fill:#223964;}
	.st48{clip-path:url(#SVGID_38_);fill:#233B65;}
	.st49{clip-path:url(#SVGID_38_);fill:#243C67;}
	.st50{clip-path:url(#SVGID_38_);fill:#253D68;}
	.st51{clip-path:url(#SVGID_38_);fill:#263E69;}
	.st52{clip-path:url(#SVGID_38_);fill:#27406B;}
	.st53{clip-path:url(#SVGID_38_);fill:#28416C;}
	.st54{clip-path:url(#SVGID_38_);fill:#29426D;}
	.st55{clip-path:url(#SVGID_38_);fill:#2A446E;}
	.st56{clip-path:url(#SVGID_38_);fill:#2B456F;}
	.st57{clip-path:url(#SVGID_38_);fill:#2B4671;}
	.st58{clip-path:url(#SVGID_38_);fill:#2C4772;}
	.st59{clip-path:url(#SVGID_38_);fill:#2D4973;}
	.st60{clip-path:url(#SVGID_38_);fill:#2E4A74;}
	.st61{clip-path:url(#SVGID_38_);fill:#2F4B76;}
	.st62{clip-path:url(#SVGID_38_);fill:#304C77;}
	.st63{clip-path:url(#SVGID_38_);fill:#314E78;}
	.st64{clip-path:url(#SVGID_38_);fill:#324F79;}
	.st65{clip-path:url(#SVGID_38_);fill:#33507A;}
	.st66{clip-path:url(#SVGID_38_);fill:#34517C;}
	.st67{clip-path:url(#SVGID_38_);fill:#35527D;}
	.st68{clip-path:url(#SVGID_38_);fill:#36547E;}
	.st69{clip-path:url(#SVGID_38_);fill:#36557F;}
	.st70{clip-path:url(#SVGID_38_);fill:#375680;}
	.st71{clip-path:url(#SVGID_38_);fill:#385780;}
	.st72{clip-path:url(#SVGID_38_);fill:#395881;}
	.st73{clip-path:url(#SVGID_38_);fill:#3A5A82;}
	.st74{clip-path:url(#SVGID_38_);fill:#3B5B83;}
	.st75{clip-path:url(#SVGID_38_);fill:#3C5C84;}
	.st76{clip-path:url(#SVGID_38_);fill:#3D5D85;}
	.st77{clip-path:url(#SVGID_38_);fill:#3D5E86;}
	.st78{clip-path:url(#SVGID_38_);fill:#3E5F88;}
	.st79{clip-path:url(#SVGID_38_);fill:#3F6189;}
	.st80{clip-path:url(#SVGID_38_);fill:#40628A;}
	.st81{clip-path:url(#SVGID_38_);fill:#41638B;}
	.st82{clip-path:url(#SVGID_38_);fill:#42648C;}
	.st83{clip-path:url(#SVGID_38_);fill:#42658D;}
	.st84{clip-path:url(#SVGID_38_);fill:#43668E;}
	.st85{clip-path:url(#SVGID_38_);fill:#44678F;}
	.st86{clip-path:url(#SVGID_38_);fill:#456890;}
	.st87{clip-path:url(#SVGID_38_);fill:#466A91;}
	.st88{clip-path:url(#SVGID_38_);fill:#476B93;}
	.st89{clip-path:url(#SVGID_38_);fill:#476C94;}
	.st90{clip-path:url(#SVGID_38_);fill:#486D95;}
	.st91{clip-path:url(#SVGID_38_);fill:#496E96;}
	.st92{clip-path:url(#SVGID_38_);fill:#4A6F97;}
	.st93{clip-path:url(#SVGID_38_);fill:#4B7098;}
	.st94{clip-path:url(#SVGID_38_);fill:#4B7199;}
	.st95{clip-path:url(#SVGID_38_);fill:#4C729A;}
	.st96{clip-path:url(#SVGID_38_);fill:#4D739B;}
	.st97{clip-path:url(#SVGID_38_);fill:#4E749C;}
	.st98{clip-path:url(#SVGID_38_);fill:#4E759D;}
	.st99{clip-path:url(#SVGID_38_);fill:#4F769E;}
	.st100{clip-path:url(#SVGID_38_);fill:#50779F;}
	.st101{clip-path:url(#SVGID_38_);fill:#5178A0;}
	.st102{clip-path:url(#SVGID_38_);fill:#5179A1;}
	.st103{clip-path:url(#SVGID_38_);fill:#527AA2;}
	.st104{clip-path:url(#SVGID_38_);fill:#537BA3;}
	.st105{clip-path:url(#SVGID_38_);fill:#547CA4;}
	.st106{clip-path:url(#SVGID_38_);fill:#547DA5;}
	.st107{clip-path:url(#SVGID_38_);fill:#557EA6;}
	.st108{clip-path:url(#SVGID_38_);fill:#567FA6;}
	.st109{clip-path:url(#SVGID_38_);fill:#5680A7;}
	.st110{clip-path:url(#SVGID_38_);fill:#5780A8;}
	.st111{clip-path:url(#SVGID_38_);fill:#5880A9;}
	.st112{clip-path:url(#SVGID_38_);fill:#5881AA;}
	.st113{clip-path:url(#SVGID_38_);fill:#5982AB;}
	.st114{clip-path:url(#SVGID_38_);fill:#5A82AC;}
	.st115{clip-path:url(#SVGID_38_);fill:#5A83AD;}
	.st116{clip-path:url(#SVGID_38_);fill:#5B84AD;}
	.st117{clip-path:url(#SVGID_38_);fill:#5C85AE;}
	.st118{clip-path:url(#SVGID_38_);fill:#5C86AF;}
	.st119{clip-path:url(#SVGID_38_);fill:#5D87B0;}
	.st120{clip-path:url(#SVGID_38_);fill:#5D87B1;}
	.st121{clip-path:url(#SVGID_38_);fill:#5E88B1;}
	.st122{clip-path:url(#SVGID_38_);fill:#5F89B2;}
	.st123{clip-path:url(#SVGID_38_);fill:#5F8AB3;}
	.st124{clip-path:url(#SVGID_38_);fill:#608AB4;}
	.st125{clip-path:url(#SVGID_38_);fill:#608BB4;}
	.st126{clip-path:url(#SVGID_38_);fill:#618CB5;}
	.st127{clip-path:url(#SVGID_38_);fill:#618DB6;}
	.st128{clip-path:url(#SVGID_38_);fill:#628DB6;}
	.st129{clip-path:url(#SVGID_38_);fill:#628EB7;}
	.st130{clip-path:url(#SVGID_38_);fill:#638FB8;}
	.st131{clip-path:url(#SVGID_38_);fill:#6490B9;}
	.st132{clip-path:url(#SVGID_38_);fill:#6591BA;}
	.st133{clip-path:url(#SVGID_38_);fill:#6591BB;}
	.st134{clip-path:url(#SVGID_38_);fill:#6592BB;}
	.st135{clip-path:url(#SVGID_38_);fill:#6692BB;}
	.st136{clip-path:url(#SVGID_38_);fill:#6693BC;}
	.st137{clip-path:url(#SVGID_40_);fill:#1E345F;}
	.st138{clip-path:url(#SVGID_40_);fill:#1F3560;}
	.st139{clip-path:url(#SVGID_40_);fill:#203762;}
	.st140{clip-path:url(#SVGID_40_);fill:#213863;}
	.st141{clip-path:url(#SVGID_40_);fill:#223964;}
	.st142{clip-path:url(#SVGID_40_);fill:#233B65;}
	.st143{clip-path:url(#SVGID_40_);fill:#243C67;}
	.st144{clip-path:url(#SVGID_40_);fill:#253D68;}
	.st145{clip-path:url(#SVGID_40_);fill:#263E69;}
	.st146{clip-path:url(#SVGID_40_);fill:#27406B;}
	.st147{clip-path:url(#SVGID_40_);fill:#28416C;}
	.st148{clip-path:url(#SVGID_40_);fill:#29426D;}
	.st149{clip-path:url(#SVGID_40_);fill:#2A446E;}
	.st150{clip-path:url(#SVGID_40_);fill:#2B456F;}
	.st151{clip-path:url(#SVGID_40_);fill:#2B4671;}
	.st152{clip-path:url(#SVGID_40_);fill:#2C4772;}
	.st153{clip-path:url(#SVGID_40_);fill:#2D4973;}
	.st154{clip-path:url(#SVGID_40_);fill:#2E4A74;}
	.st155{clip-path:url(#SVGID_40_);fill:#2F4B76;}
	.st156{clip-path:url(#SVGID_40_);fill:#304C77;}
	.st157{clip-path:url(#SVGID_40_);fill:#314E78;}
	.st158{clip-path:url(#SVGID_40_);fill:#324F79;}
	.st159{clip-path:url(#SVGID_40_);fill:#33507A;}
	.st160{clip-path:url(#SVGID_40_);fill:#34517C;}
	.st161{clip-path:url(#SVGID_40_);fill:#35527D;}
	.st162{clip-path:url(#SVGID_40_);fill:#36547E;}
	.st163{clip-path:url(#SVGID_40_);fill:#36557F;}
	.st164{clip-path:url(#SVGID_40_);fill:#375680;}
	.st165{clip-path:url(#SVGID_40_);fill:#385780;}
	.st166{clip-path:url(#SVGID_40_);fill:#395881;}
	.st167{clip-path:url(#SVGID_40_);fill:#3A5A82;}
	.st168{clip-path:url(#SVGID_40_);fill:#3B5B83;}
	.st169{clip-path:url(#SVGID_40_);fill:#3C5C84;}
	.st170{clip-path:url(#SVGID_40_);fill:#3D5D85;}
	.st171{clip-path:url(#SVGID_40_);fill:#3D5E86;}
	.st172{clip-path:url(#SVGID_40_);fill:#3E5F88;}
	.st173{clip-path:url(#SVGID_40_);fill:#3F6189;}
	.st174{clip-path:url(#SVGID_40_);fill:#40628A;}
	.st175{clip-path:url(#SVGID_40_);fill:#41638B;}
	.st176{clip-path:url(#SVGID_40_);fill:#42648C;}
	.st177{clip-path:url(#SVGID_40_);fill:#42658D;}
	.st178{clip-path:url(#SVGID_40_);fill:#43668E;}
	.st179{clip-path:url(#SVGID_40_);fill:#44678F;}
	.st180{clip-path:url(#SVGID_40_);fill:#456890;}
	.st181{clip-path:url(#SVGID_40_);fill:#466A91;}
	.st182{clip-path:url(#SVGID_40_);fill:#476B93;}
	.st183{clip-path:url(#SVGID_40_);fill:#476C94;}
	.st184{clip-path:url(#SVGID_40_);fill:#486D95;}
	.st185{clip-path:url(#SVGID_40_);fill:#496E96;}
	.st186{clip-path:url(#SVGID_40_);fill:#4A6F97;}
	.st187{clip-path:url(#SVGID_40_);fill:#4B7098;}
	.st188{clip-path:url(#SVGID_40_);fill:#4B7199;}
	.st189{clip-path:url(#SVGID_40_);fill:#4C729A;}
	.st190{clip-path:url(#SVGID_40_);fill:#4D739B;}
	.st191{clip-path:url(#SVGID_40_);fill:#4E749C;}
	.st192{clip-path:url(#SVGID_40_);fill:#4E759D;}
	.st193{clip-path:url(#SVGID_40_);fill:#4F769E;}
	.st194{clip-path:url(#SVGID_40_);fill:#50779F;}
	.st195{clip-path:url(#SVGID_40_);fill:#5178A0;}
	.st196{clip-path:url(#SVGID_40_);fill:#5179A1;}
	.st197{clip-path:url(#SVGID_40_);fill:#527AA2;}
	.st198{clip-path:url(#SVGID_40_);fill:#537BA3;}
	.st199{clip-path:url(#SVGID_40_);fill:#547CA4;}
	.st200{clip-path:url(#SVGID_40_);fill:#547DA5;}
	.st201{clip-path:url(#SVGID_40_);fill:#557EA6;}
	.st202{clip-path:url(#SVGID_40_);fill:#567FA6;}
	.st203{clip-path:url(#SVGID_40_);fill:#5680A7;}
	.st204{clip-path:url(#SVGID_40_);fill:#5780A8;}
	.st205{clip-path:url(#SVGID_40_);fill:#5880A9;}
	.st206{clip-path:url(#SVGID_40_);fill:#5881AA;}
	.st207{clip-path:url(#SVGID_40_);fill:#5982AB;}
	.st208{clip-path:url(#SVGID_40_);fill:#5A82AC;}
	.st209{clip-path:url(#SVGID_40_);fill:#5A83AD;}
	.st210{clip-path:url(#SVGID_40_);fill:#5B84AD;}
	.st211{clip-path:url(#SVGID_40_);fill:#5C85AE;}
	.st212{clip-path:url(#SVGID_40_);fill:#5C86AF;}
	.st213{clip-path:url(#SVGID_40_);fill:#5D87B0;}
	.st214{clip-path:url(#SVGID_40_);fill:#5D87B1;}
	.st215{clip-path:url(#SVGID_40_);fill:#5E88B1;}
	.st216{clip-path:url(#SVGID_40_);fill:#5F89B2;}
	.st217{clip-path:url(#SVGID_40_);fill:#5F8AB3;}
	.st218{clip-path:url(#SVGID_40_);fill:#608AB4;}
	.st219{clip-path:url(#SVGID_40_);fill:#608BB4;}
	.st220{clip-path:url(#SVGID_40_);fill:#618CB5;}
	.st221{clip-path:url(#SVGID_40_);fill:#618DB6;}
	.st222{clip-path:url(#SVGID_40_);fill:#628DB6;}
	.st223{clip-path:url(#SVGID_40_);fill:#628EB7;}
	.st224{clip-path:url(#SVGID_40_);fill:#638FB8;}
	.st225{clip-path:url(#SVGID_40_);fill:#6490B9;}
	.st226{clip-path:url(#SVGID_40_);fill:#6591BA;}
	.st227{clip-path:url(#SVGID_40_);fill:#6591BB;}
	.st228{clip-path:url(#SVGID_40_);fill:#6592BB;}
	.st229{clip-path:url(#SVGID_40_);fill:#6692BB;}
	.st230{clip-path:url(#SVGID_40_);fill:#6693BC;}
	.st231{fill:#A6C3D9;}
	.st232{fill:#F2F2F2;}
	.st233{fill:#8AB252;}
	.st234{opacity:0.25;}
	.st235{fill:#4B4B4B;}
	.st236{clip-path:url(#SVGID_44_);}
	.st237{fill:#E3E6EF;}
	.st238{fill:url(#SVGID_45_);}
	.st239{fill:#DF9C6F;}
	.st240{fill:#BC5059;}
	.st241{clip-path:url(#SVGID_49_);}
	.st242{clip-path:url(#SVGID_51_);}
	.st243{clip-path:url(#SVGID_53_);fill:#1E345F;}
	.st244{clip-path:url(#SVGID_53_);fill:#1F3560;}
	.st245{clip-path:url(#SVGID_53_);fill:#203762;}
	.st246{clip-path:url(#SVGID_53_);fill:#213863;}
	.st247{clip-path:url(#SVGID_53_);fill:#223964;}
	.st248{clip-path:url(#SVGID_53_);fill:#233B65;}
	.st249{clip-path:url(#SVGID_53_);fill:#243C67;}
	.st250{clip-path:url(#SVGID_53_);fill:#253D68;}
	.st251{clip-path:url(#SVGID_53_);fill:#263E69;}
	.st252{clip-path:url(#SVGID_53_);fill:#27406B;}
	.st253{clip-path:url(#SVGID_53_);fill:#28416C;}
	.st254{clip-path:url(#SVGID_53_);fill:#29426D;}
	.st255{clip-path:url(#SVGID_53_);fill:#2A446E;}
	.st256{clip-path:url(#SVGID_53_);fill:#2B456F;}
	.st257{clip-path:url(#SVGID_53_);fill:#2B4671;}
	.st258{clip-path:url(#SVGID_53_);fill:#2C4772;}
	.st259{clip-path:url(#SVGID_53_);fill:#2D4973;}
	.st260{clip-path:url(#SVGID_53_);fill:#2E4A74;}
	.st261{clip-path:url(#SVGID_53_);fill:#2F4B76;}
	.st262{clip-path:url(#SVGID_53_);fill:#304C77;}
	.st263{clip-path:url(#SVGID_53_);fill:#314E78;}
	.st264{clip-path:url(#SVGID_53_);fill:#324F79;}
	.st265{clip-path:url(#SVGID_53_);fill:#33507A;}
	.st266{clip-path:url(#SVGID_53_);fill:#34517C;}
	.st267{clip-path:url(#SVGID_53_);fill:#35527D;}
	.st268{clip-path:url(#SVGID_53_);fill:#36547E;}
	.st269{clip-path:url(#SVGID_53_);fill:#36557F;}
	.st270{clip-path:url(#SVGID_53_);fill:#375680;}
	.st271{clip-path:url(#SVGID_53_);fill:#385780;}
	.st272{clip-path:url(#SVGID_53_);fill:#395881;}
	.st273{clip-path:url(#SVGID_53_);fill:#3A5A82;}
	.st274{clip-path:url(#SVGID_53_);fill:#3B5B83;}
	.st275{clip-path:url(#SVGID_53_);fill:#3C5C84;}
	.st276{clip-path:url(#SVGID_53_);fill:#3D5D85;}
	.st277{clip-path:url(#SVGID_53_);fill:#3D5E86;}
	.st278{clip-path:url(#SVGID_53_);fill:#3E5F88;}
	.st279{clip-path:url(#SVGID_53_);fill:#3F6189;}
	.st280{clip-path:url(#SVGID_53_);fill:#40628A;}
	.st281{clip-path:url(#SVGID_53_);fill:#41638B;}
	.st282{clip-path:url(#SVGID_53_);fill:#42648C;}
	.st283{clip-path:url(#SVGID_53_);fill:#42658D;}
	.st284{clip-path:url(#SVGID_53_);fill:#43668E;}
	.st285{clip-path:url(#SVGID_53_);fill:#44678F;}
	.st286{clip-path:url(#SVGID_53_);fill:#456890;}
	.st287{clip-path:url(#SVGID_53_);fill:#466A91;}
	.st288{clip-path:url(#SVGID_53_);fill:#476B93;}
	.st289{clip-path:url(#SVGID_53_);fill:#476C94;}
	.st290{clip-path:url(#SVGID_53_);fill:#486D95;}
	.st291{clip-path:url(#SVGID_53_);fill:#496E96;}
	.st292{clip-path:url(#SVGID_53_);fill:#4A6F97;}
	.st293{clip-path:url(#SVGID_53_);fill:#4B7098;}
	.st294{clip-path:url(#SVGID_53_);fill:#4B7199;}
	.st295{clip-path:url(#SVGID_53_);fill:#4C729A;}
	.st296{clip-path:url(#SVGID_53_);fill:#4D739B;}
	.st297{clip-path:url(#SVGID_53_);fill:#4E749C;}
	.st298{clip-path:url(#SVGID_53_);fill:#4E759D;}
	.st299{clip-path:url(#SVGID_53_);fill:#4F769E;}
	.st300{clip-path:url(#SVGID_53_);fill:#50779F;}
	.st301{clip-path:url(#SVGID_53_);fill:#5178A0;}
	.st302{clip-path:url(#SVGID_53_);fill:#5179A1;}
	.st303{clip-path:url(#SVGID_53_);fill:#527AA2;}
	.st304{clip-path:url(#SVGID_53_);fill:#537BA3;}
	.st305{clip-path:url(#SVGID_53_);fill:#547CA4;}
	.st306{clip-path:url(#SVGID_53_);fill:#547DA5;}
	.st307{clip-path:url(#SVGID_53_);fill:#557EA6;}
	.st308{clip-path:url(#SVGID_53_);fill:#567FA6;}
	.st309{clip-path:url(#SVGID_53_);fill:#5680A7;}
	.st310{clip-path:url(#SVGID_53_);fill:#5780A8;}
	.st311{clip-path:url(#SVGID_53_);fill:#5880A9;}
	.st312{clip-path:url(#SVGID_53_);fill:#5881AA;}
	.st313{clip-path:url(#SVGID_53_);fill:#5982AB;}
	.st314{clip-path:url(#SVGID_53_);fill:#5A82AC;}
	.st315{clip-path:url(#SVGID_53_);fill:#5A83AD;}
	.st316{clip-path:url(#SVGID_53_);fill:#5B84AD;}
	.st317{clip-path:url(#SVGID_53_);fill:#5C85AE;}
	.st318{clip-path:url(#SVGID_53_);fill:#5C86AF;}
	.st319{clip-path:url(#SVGID_53_);fill:#5D87B0;}
	.st320{clip-path:url(#SVGID_53_);fill:#5D87B1;}
	.st321{clip-path:url(#SVGID_53_);fill:#5E88B1;}
	.st322{clip-path:url(#SVGID_53_);fill:#5F89B2;}
	.st323{clip-path:url(#SVGID_53_);fill:#5F8AB3;}
	.st324{clip-path:url(#SVGID_53_);fill:#608AB4;}
	.st325{clip-path:url(#SVGID_53_);fill:#608BB4;}
	.st326{clip-path:url(#SVGID_53_);fill:#618CB5;}
	.st327{clip-path:url(#SVGID_53_);fill:#618DB6;}
	.st328{clip-path:url(#SVGID_53_);fill:#628DB6;}
	.st329{clip-path:url(#SVGID_53_);fill:#628EB7;}
	.st330{clip-path:url(#SVGID_53_);fill:#638FB8;}
	.st331{clip-path:url(#SVGID_53_);fill:#6490B9;}
	.st332{clip-path:url(#SVGID_53_);fill:#6591BA;}
	.st333{clip-path:url(#SVGID_53_);fill:#6591BB;}
	.st334{clip-path:url(#SVGID_53_);fill:#6592BB;}
	.st335{clip-path:url(#SVGID_53_);fill:#6692BB;}
	.st336{clip-path:url(#SVGID_53_);fill:#6693BC;}
	.st337{clip-path:url(#SVGID_55_);fill:#1E345F;}
	.st338{clip-path:url(#SVGID_55_);fill:#1F3560;}
	.st339{clip-path:url(#SVGID_55_);fill:#203762;}
	.st340{clip-path:url(#SVGID_55_);fill:#213863;}
	.st341{clip-path:url(#SVGID_55_);fill:#223964;}
	.st342{clip-path:url(#SVGID_55_);fill:#233B65;}
	.st343{clip-path:url(#SVGID_55_);fill:#243C67;}
	.st344{clip-path:url(#SVGID_55_);fill:#253D68;}
	.st345{clip-path:url(#SVGID_55_);fill:#263E69;}
	.st346{clip-path:url(#SVGID_55_);fill:#27406B;}
	.st347{clip-path:url(#SVGID_55_);fill:#28416C;}
	.st348{clip-path:url(#SVGID_55_);fill:#29426D;}
	.st349{clip-path:url(#SVGID_55_);fill:#2A446E;}
	.st350{clip-path:url(#SVGID_55_);fill:#2B456F;}
	.st351{clip-path:url(#SVGID_55_);fill:#2B4671;}
	.st352{clip-path:url(#SVGID_55_);fill:#2C4772;}
	.st353{clip-path:url(#SVGID_55_);fill:#2D4973;}
	.st354{clip-path:url(#SVGID_55_);fill:#2E4A74;}
	.st355{clip-path:url(#SVGID_55_);fill:#2F4B76;}
	.st356{clip-path:url(#SVGID_55_);fill:#304C77;}
	.st357{clip-path:url(#SVGID_55_);fill:#314E78;}
	.st358{clip-path:url(#SVGID_55_);fill:#324F79;}
	.st359{clip-path:url(#SVGID_55_);fill:#33507A;}
	.st360{clip-path:url(#SVGID_55_);fill:#34517C;}
	.st361{clip-path:url(#SVGID_55_);fill:#35527D;}
	.st362{clip-path:url(#SVGID_55_);fill:#36547E;}
	.st363{clip-path:url(#SVGID_55_);fill:#36557F;}
	.st364{clip-path:url(#SVGID_55_);fill:#375680;}
	.st365{clip-path:url(#SVGID_55_);fill:#385780;}
	.st366{clip-path:url(#SVGID_55_);fill:#395881;}
	.st367{clip-path:url(#SVGID_55_);fill:#3A5A82;}
	.st368{clip-path:url(#SVGID_55_);fill:#3B5B83;}
	.st369{clip-path:url(#SVGID_55_);fill:#3C5C84;}
	.st370{clip-path:url(#SVGID_55_);fill:#3D5D85;}
	.st371{clip-path:url(#SVGID_55_);fill:#3D5E86;}
	.st372{clip-path:url(#SVGID_55_);fill:#3E5F88;}
	.st373{clip-path:url(#SVGID_55_);fill:#3F6189;}
	.st374{clip-path:url(#SVGID_55_);fill:#40628A;}
	.st375{clip-path:url(#SVGID_55_);fill:#41638B;}
	.st376{clip-path:url(#SVGID_55_);fill:#42648C;}
	.st377{clip-path:url(#SVGID_55_);fill:#42658D;}
	.st378{clip-path:url(#SVGID_55_);fill:#43668E;}
	.st379{clip-path:url(#SVGID_55_);fill:#44678F;}
	.st380{clip-path:url(#SVGID_55_);fill:#456890;}
	.st381{clip-path:url(#SVGID_55_);fill:#466A91;}
	.st382{clip-path:url(#SVGID_55_);fill:#476B93;}
	.st383{clip-path:url(#SVGID_55_);fill:#476C94;}
	.st384{clip-path:url(#SVGID_55_);fill:#486D95;}
	.st385{clip-path:url(#SVGID_55_);fill:#496E96;}
	.st386{clip-path:url(#SVGID_55_);fill:#4A6F97;}
	.st387{clip-path:url(#SVGID_55_);fill:#4B7098;}
	.st388{clip-path:url(#SVGID_55_);fill:#4B7199;}
	.st389{clip-path:url(#SVGID_55_);fill:#4C729A;}
	.st390{clip-path:url(#SVGID_55_);fill:#4D739B;}
	.st391{clip-path:url(#SVGID_55_);fill:#4E749C;}
	.st392{clip-path:url(#SVGID_55_);fill:#4E759D;}
	.st393{clip-path:url(#SVGID_55_);fill:#4F769E;}
	.st394{clip-path:url(#SVGID_55_);fill:#50779F;}
	.st395{clip-path:url(#SVGID_55_);fill:#5178A0;}
	.st396{clip-path:url(#SVGID_55_);fill:#5179A1;}
	.st397{clip-path:url(#SVGID_55_);fill:#527AA2;}
	.st398{clip-path:url(#SVGID_55_);fill:#537BA3;}
	.st399{clip-path:url(#SVGID_55_);fill:#547CA4;}
	.st400{clip-path:url(#SVGID_55_);fill:#547DA5;}
	.st401{clip-path:url(#SVGID_55_);fill:#557EA6;}
	.st402{clip-path:url(#SVGID_55_);fill:#567FA6;}
	.st403{clip-path:url(#SVGID_55_);fill:#5680A7;}
	.st404{clip-path:url(#SVGID_55_);fill:#5780A8;}
	.st405{clip-path:url(#SVGID_55_);fill:#5880A9;}
	.st406{clip-path:url(#SVGID_55_);fill:#5881AA;}
	.st407{clip-path:url(#SVGID_55_);fill:#5982AB;}
	.st408{clip-path:url(#SVGID_55_);fill:#5A82AC;}
	.st409{clip-path:url(#SVGID_55_);fill:#5A83AD;}
	.st410{clip-path:url(#SVGID_55_);fill:#5B84AD;}
	.st411{clip-path:url(#SVGID_55_);fill:#5C85AE;}
	.st412{clip-path:url(#SVGID_55_);fill:#5C86AF;}
	.st413{clip-path:url(#SVGID_55_);fill:#5D87B0;}
	.st414{clip-path:url(#SVGID_55_);fill:#5D87B1;}
	.st415{clip-path:url(#SVGID_55_);fill:#5E88B1;}
	.st416{clip-path:url(#SVGID_55_);fill:#5F89B2;}
	.st417{clip-path:url(#SVGID_55_);fill:#5F8AB3;}
	.st418{clip-path:url(#SVGID_55_);fill:#608AB4;}
	.st419{clip-path:url(#SVGID_55_);fill:#608BB4;}
	.st420{clip-path:url(#SVGID_55_);fill:#618CB5;}
	.st421{clip-path:url(#SVGID_55_);fill:#618DB6;}
	.st422{clip-path:url(#SVGID_55_);fill:#628DB6;}
	.st423{clip-path:url(#SVGID_55_);fill:#628EB7;}
	.st424{clip-path:url(#SVGID_55_);fill:#638FB8;}
	.st425{clip-path:url(#SVGID_55_);fill:#6490B9;}
	.st426{clip-path:url(#SVGID_55_);fill:#6591BA;}
	.st427{clip-path:url(#SVGID_55_);fill:#6591BB;}
	.st428{clip-path:url(#SVGID_55_);fill:#6592BB;}
	.st429{clip-path:url(#SVGID_55_);fill:#6692BB;}
	.st430{clip-path:url(#SVGID_55_);fill:#6693BC;}
	.st431{clip-path:url(#SVGID_59_);}
	.st432{fill:url(#SVGID_60_);}
	.st433{clip-path:url(#SVGID_64_);}
	.st434{opacity:0.53;clip-path:url(#SVGID_64_);fill:#606060;}
	.st435{fill:#CE5191;}
	.st436{fill:#EABE36;}
	.st437{fill:#E6E6E6;}
	.st438{fill:none;stroke:#606060;stroke-width:0.25;stroke-miterlimit:10;}
	.st439{fill:#F6E797;}
	.st440{fill:#EBAC34;}
	.st441{fill:#D38925;}
	.st442{fill:#5A99A7;}
	.st443{fill:#DA9835;}
	.st444{fill:#80B9C2;}
	.st445{fill:#528EA0;}
	.st446{fill:#F1C839;}
	.st447{opacity:0.6;}
	.st448{fill:#95B4D0;}
	.st449{opacity:0.49;}
	.st450{fill:#CFDCE9;}
	.st451{fill:#81A6C6;}
	.st452{fill:#668FB8;}
	.st453{opacity:0.75;}
	.st454{fill:none;stroke:#FFFFFF;stroke-width:3;stroke-linecap:round;stroke-linejoin:round;stroke-miterlimit:10;}
	.st455{fill:none;stroke:#CACACA;stroke-linecap:round;stroke-linejoin:round;stroke-miterlimit:10;}
	.st456{fill:#ACB94F;}
	.st457{opacity:0.3;fill:#FFFFFF;}
	.st458{fill:#C3E2EE;}
	.st459{opacity:0.5;fill:#FFFFFF;}
	.st460{fill:#BECBD8;}
	.st461{opacity:0.3;fill:#BECBD8;}
	.st462{fill:#85A8C8;}
	.st463{fill:#3973A6;}
	.st464{clip-path:url(#SVGID_68_);fill:#BECBD8;}
	.st465{opacity:0.3;clip-path:url(#SVGID_68_);fill:#BECBD8;}
	.st466{fill:#CBCBCB;}
	.st467{fill:#DEDEDE;}
	.st468{opacity:0.3;fill:#5887B4;}
	.st469{fill:#D6DAE4;}
	.st470{fill:url(#SVGID_69_);}
	.st471{fill:url(#SVGID_70_);}
	.st472{fill:url(#SVGID_71_);}
	.st473{opacity:0.48;fill:#FFFFFF;}
	.st474{fill:#1E1E1E;}
	.st475{fill:#E8B94F;}
	.st476{fill:url(#SVGID_72_);}
	.st477{fill:url(#SVGID_73_);}
	.st478{fill:url(#SVGID_74_);}
	.st479{opacity:0.3;fill:url(#SVGID_75_);}
	.st480{clip-path:url(#SVGID_79_);fill:#BECBD8;}
	.st481{opacity:0.3;clip-path:url(#SVGID_79_);fill:#BECBD8;}
	.st482{fill:url(#SVGID_80_);}
	.st483{fill:url(#SVGID_81_);}
	.st484{fill:url(#SVGID_82_);}
	.st485{fill:url(#SVGID_83_);}
	.st486{fill:url(#SVGID_84_);}
	.st487{fill:url(#SVGID_85_);}
	.st488{opacity:0.3;fill:url(#SVGID_86_);}
	.st489{fill:url(#SVGID_87_);}
	.st490{clip-path:url(#SVGID_89_);}
	.st491{fill:#5887B4;}
	.st492{clip-path:url(#SVGID_93_);fill:#ACB94F;}
	.st493{clip-path:url(#SVGID_93_);}
	.st494{fill:#C2C2C2;}
	.st495{fill:#F8F8F8;}
	.st496{fill:#D8E3ED;}
	.st497{opacity:0.48;fill:#5887B4;}
	.st498{fill:url(#SVGID_96_);}
	.st499{clip-path:url(#SVGID_98_);}
	.st500{fill:url(#SVGID_99_);}
	.st501{fill:url(#SVGID_100_);}
	.st502{fill:url(#SVGID_101_);}
	.st503{fill:url(#SVGID_102_);}
	.st504{fill:url(#SVGID_103_);}
	.st505{fill:url(#SVGID_104_);}
	.st506{fill:url(#SVGID_105_);}
	.st507{fill:url(#SVGID_106_);}
	.st508{fill:url(#SVGID_107_);}
	.st509{fill:url(#SVGID_108_);}
	.st510{fill:url(#SVGID_109_);}
	.st511{fill:url(#SVGID_110_);}
	.st512{fill:url(#SVGID_111_);}
	.st513{fill:#282A56;}
	.st514{fill:url(#SVGID_112_);}
	.st515{fill:url(#SVGID_113_);}
	.st516{fill:url(#SVGID_114_);}
	.st517{fill:url(#SVGID_115_);}
	.st518{fill:url(#SVGID_116_);}
	.st519{fill:url(#SVGID_117_);}
	.st520{fill:url(#SVGID_118_);}
	.st521{fill:url(#SVGID_119_);}
	.st522{fill:url(#SVGID_120_);}
	.st523{fill:#2A2A4F;}
	.st524{fill:url(#SVGID_121_);}
	.st525{fill:url(#SVGID_122_);}
	.st526{fill:url(#SVGID_123_);}
	.st527{clip-path:url(#SVGID_125_);}
	.st528{clip-path:url(#SVGID_127_);}
	.st529{clip-path:url(#SVGID_131_);}
	.st530{clip-path:url(#SVGID_133_);}
	.st531{clip-path:url(#SVGID_137_);}
	.st532{clip-path:url(#SVGID_139_);}
	.st533{fill:#484C86;}
	.st534{fill:url(#SVGID_142_);}
	.st535{fill:url(#SVGID_143_);}
	.st536{clip-path:url(#SVGID_145_);}
	.st537{clip-path:url(#SVGID_149_);fill:#ACB94F;}
	.st538{clip-path:url(#SVGID_149_);}
	.st539{fill:url(#SVGID_152_);}
	.st540{clip-path:url(#SVGID_154_);}
	.st541{fill:url(#SVGID_155_);}
	.st542{fill:url(#SVGID_156_);}
	.st543{fill:url(#SVGID_157_);}
	.st544{clip-path:url(#SVGID_159_);}
	.st545{clip-path:url(#SVGID_163_);}
	.st546{fill:#C6D6E5;}
	.st547{fill:url(#SVGID_166_);}
	.st548{fill:url(#SVGID_167_);}
	.st549{clip-path:url(#SVGID_169_);fill:#FFFFFF;}
	.st550{fill:url(#SVGID_170_);}
	.st551{fill:url(#SVGID_171_);}
	.st552{fill:url(#SVGID_172_);}
	.st553{fill:url(#SVGID_173_);}
	.st554{fill:url(#SVGID_174_);}
	.st555{fill:url(#SVGID_175_);}
	.st556{fill:url(#SVGID_176_);}
	.st557{fill:url(#SVGID_177_);}
	.st558{fill:url(#SVGID_178_);}
	.st559{fill:url(#SVGID_179_);}
	.st560{fill:url(#SVGID_180_);}
	.st561{fill:url(#SVGID_181_);}
	.st562{fill:url(#SVGID_182_);}
	.st563{fill:url(#SVGID_183_);}
	.st564{fill:url(#SVGID_184_);}
	.st565{fill:url(#SVGID_185_);}
	.st566{fill:url(#SVGID_186_);}
	.st567{fill:url(#SVGID_187_);}
	.st568{fill:url(#SVGID_188_);}
	.st569{fill:url(#SVGID_189_);}
	.st570{fill:url(#SVGID_190_);}
	.st571{fill:url(#SVGID_191_);}
	.st572{clip-path:url(#SVGID_193_);}
	.st573{clip-path:url(#SVGID_197_);}
	.st574{clip-path:url(#SVGID_201_);}
	.st575{fill:url(#SVGID_204_);}
	.st576{opacity:0.5;clip-path:url(#SVGID_208_);}
	.st577{fill:#C7D8E6;}
	.st578{opacity:0.5;clip-path:url(#SVGID_212_);}
	.st579{fill:#BDC4D1;}
	.st580{fill:url(#SVGID_213_);}
	.st581{fill:url(#SVGID_214_);}
	.st582{fill:url(#SVGID_215_);}
	.st583{fill:url(#SVGID_216_);}
	.st584{fill:url(#SVGID_217_);}
	.st585{fill:url(#SVGID_218_);}
	.st586{clip-path:url(#SVGID_220_);}
	.st587{clip-path:url(#SVGID_222_);}
	.st588{clip-path:url(#SVGID_226_);}
	.st589{clip-path:url(#SVGID_228_);}
	.st590{clip-path:url(#SVGID_232_);}
	.st591{clip-path:url(#SVGID_234_);}
	.st592{opacity:0.5;clip-path:url(#SVGID_240_);}
	.st593{opacity:0.5;clip-path:url(#SVGID_244_);}
	.st594{fill:url(#SVGID_245_);}
	.st595{fill:url(#SVGID_246_);}
	.st596{fill:url(#SVGID_247_);}
	.st597{fill:url(#SVGID_248_);}
	.st598{fill:url(#SVGID_249_);}
	.st599{fill:url(#SVGID_250_);}
	.st600{clip-path:url(#SVGID_252_);}
	.st601{clip-path:url(#SVGID_256_);}
	.st602{clip-path:url(#SVGID_260_);}
	.st603{opacity:0.2;clip-path:url(#SVGID_264_);}
	.st604{clip-path:url(#SVGID_266_);}
	.st605{opacity:0.2;clip-path:url(#SVGID_268_);}
	.st606{clip-path:url(#SVGID_270_);}
	.st607{opacity:0.2;clip-path:url(#SVGID_272_);}
	.st608{clip-path:url(#SVGID_274_);}
	.st609{opacity:0.2;clip-path:url(#SVGID_276_);}
	.st610{clip-path:url(#SVGID_278_);}
	.st611{opacity:0.2;clip-path:url(#SVGID_280_);}
	.st612{clip-path:url(#SVGID_282_);}
	.st613{fill:#E9E9E9;}
	.st614{fill:none;stroke:#FFFFFF;stroke-width:2;stroke-linecap:round;stroke-linejoin:round;stroke-miterlimit:10;}
	.st615{fill:none;stroke:#393939;stroke-width:2;stroke-linecap:round;stroke-linejoin:round;stroke-miterlimit:10;}
	.st616{fill:#CE5191;stroke:#CE5191;stroke-width:0.5;stroke-miterlimit:10;}
	.st617{opacity:0.15;}
	.st618{fill:#D3BEA8;}
	.st619{clip-path:url(#SVGID_284_);}
	.st620{fill:none;stroke:#393939;stroke-miterlimit:10;}
	.st621{clip-path:url(#SVGID_286_);}
	.st622{clip-path:url(#SVGID_288_);}
	.st623{opacity:0.81;}
	.st624{fill:#68B3B6;}
	.st625{fill:none;stroke:#668FB8;stroke-width:4;stroke-linecap:round;stroke-linejoin:round;stroke-miterlimit:10;}
	.st626{fill:none;stroke:#393939;stroke-width:0.5;stroke-miterlimit:10;}
	.st627{enable-background:new    ;}
	.st628{clip-path:url(#SVGID_298_);enable-background:new    ;}
	.st629{fill:#6E7983;}
	.st630{clip-path:url(#SVGID_300_);enable-background:new    ;}
	.st631{fill:#636C75;}
	.st632{fill:#5F6871;}
	.st633{clip-path:url(#SVGID_302_);enable-background:new    ;}
	.st634{fill:#6D7781;}
	.st635{clip-path:url(#SVGID_304_);enable-background:new    ;}
	.st636{fill:#67707A;}
	.st637{fill:#6A747E;}
	.st638{fill:#ADBECD;}
	.st639{clip-path:url(#SVGID_306_);}
	.st640{opacity:0.53;clip-path:url(#SVGID_306_);fill:#606060;}
</style>
<g id="Capa_2" class="st0">
</g>
<g id="Capa_1">
	<g>
		<defs>
			<rect id="SVGID_1_" x="454.7" y="53.12" width="1926.84" height="800"/>
		</defs>
		<clipPath id="SVGID_2_">
			<use xlink:href="#SVGID_1_"  style="overflow:visible;"/>
		</clipPath>
		<g class="st1">
			<defs>
				<rect id="SVGID_3_" x="458.12" y="-18.49" class="st2" width="1926.84" height="946.27"/>
			</defs>
			<clipPath id="SVGID_4_">
				<use xlink:href="#SVGID_3_"  style="overflow:visible;"/>
			</clipPath>
			<g class="st3">
			</g>
		</g>
	</g>
	<g>
		<defs>
			<rect id="SVGID_263_" x="-2106.04" y="53.12" width="1926.84" height="800"/>
		</defs>
		<clipPath id="SVGID_6_">
			<use xlink:href="#SVGID_263_"  style="overflow:visible;"/>
		</clipPath>
		<g style="opacity:0.2;clip-path:url(#SVGID_6_);">
			<defs>
				<rect id="SVGID_265_" x="-2102.62" y="-18.49" class="st2" width="1926.84" height="946.27"/>
			</defs>
			<clipPath id="SVGID_8_">
				<use xlink:href="#SVGID_265_"  style="overflow:visible;"/>
			</clipPath>
			<g style="clip-path:url(#SVGID_8_);">
			</g>
		</g>
	</g>
	<g>
		<g>
			<g>
				<g>
					<path class="st11" d="M32.96,28.62c1.45,1.52,2.18,3.56,2.18,6.13c0,2.57-0.73,4.62-2.18,6.17c-1.45,1.55-3.4,2.32-5.83,2.32
						c-2.44,0-4.39-0.77-5.85-2.32c-1.47-1.55-2.2-3.6-2.2-6.17c0-2.54,0.73-4.58,2.2-6.11c1.47-1.53,3.42-2.3,5.85-2.3
						C29.56,26.34,31.51,27.1,32.96,28.62z M25.3,32c-0.46,0.68-0.69,1.6-0.69,2.75c0,1.15,0.23,2.08,0.69,2.77
						c0.46,0.69,1.07,1.04,1.83,1.04c0.76,0,1.37-0.35,1.83-1.04c0.46-0.69,0.69-1.62,0.69-2.77c0-1.15-0.23-2.07-0.69-2.75
						c-0.46-0.68-1.07-1.02-1.83-1.02C26.37,30.98,25.76,31.32,25.3,32z M45.2,26.5h5.85L31.92,54.04h-5.85L45.2,26.5z M55.86,39.62
						c1.45,1.52,2.18,3.56,2.18,6.13c0,2.57-0.73,4.62-2.18,6.17c-1.45,1.55-3.4,2.32-5.83,2.32c-2.44,0-4.39-0.77-5.85-2.32
						c-1.47-1.55-2.2-3.6-2.2-6.17c0-2.54,0.73-4.58,2.2-6.11c1.47-1.53,3.42-2.3,5.85-2.3C52.47,37.34,54.41,38.1,55.86,39.62z
						 M48.2,43c-0.46,0.68-0.69,1.6-0.69,2.75c0,1.15,0.23,2.08,0.69,2.77c0.46,0.69,1.07,1.04,1.83,1.04
						c0.76,0,1.37-0.35,1.83-1.04c0.46-0.69,0.69-1.62,0.69-2.77c0-1.15-0.23-2.07-0.69-2.75c-0.46-0.68-1.07-1.02-1.83-1.02
						C49.27,41.98,48.66,42.32,48.2,43z"/>
					<path class="st11" d="M50.03,54.63c-2.54,0-4.6-0.82-6.14-2.44c-1.53-1.61-2.31-3.78-2.31-6.44c0-2.63,0.78-4.78,2.31-6.38
						c1.54-1.61,3.6-2.42,6.14-2.42c2.53,0,4.59,0.81,6.12,2.4l0,0c1.52,1.59,2.29,3.74,2.29,6.4c0,2.66-0.77,4.83-2.29,6.44
						C54.63,53.81,52.57,54.63,50.03,54.63z M50.03,37.73c-2.31,0-4.19,0.73-5.57,2.18c-1.39,1.45-2.09,3.41-2.09,5.84
						c0,2.45,0.7,4.44,2.09,5.9c1.38,1.46,3.26,2.2,5.57,2.2c2.31,0,4.18-0.74,5.55-2.19c1.38-1.46,2.07-3.45,2.07-5.9
						c0-2.45-0.7-4.42-2.07-5.86l0,0C54.21,38.46,52.34,37.73,50.03,37.73z M32.12,54.43h-6.81L44.99,26.1h6.81L32.12,54.43z
						 M26.82,53.64h4.9L50.3,26.89h-4.9L26.82,53.64z M50.03,49.95c-0.9,0-1.62-0.41-2.16-1.22c-0.5-0.75-0.75-1.76-0.75-2.99
						c0-1.23,0.25-2.22,0.75-2.97l0,0c0.53-0.79,1.26-1.19,2.15-1.19c0.89,0,1.62,0.4,2.15,1.19c0.5,0.74,0.75,1.74,0.75,2.97
						c0,1.23-0.25,2.23-0.75,2.99C51.65,49.54,50.93,49.95,50.03,49.95z M50.03,42.37c-0.63,0-1.12,0.28-1.5,0.85l0,0
						c-0.41,0.61-0.62,1.46-0.62,2.53c0,1.07,0.21,1.93,0.62,2.55c0.38,0.58,0.87,0.87,1.5,0.87c0.62,0,1.11-0.28,1.5-0.86
						c0.41-0.62,0.62-1.48,0.62-2.55c0-1.07-0.21-1.92-0.62-2.53C51.15,42.65,50.65,42.37,50.03,42.37z M27.13,43.63
						c-2.54,0-4.6-0.82-6.14-2.44c-1.53-1.61-2.31-3.78-2.31-6.44c0-2.63,0.78-4.78,2.31-6.38c1.54-1.61,3.6-2.42,6.14-2.42
						c2.53,0,4.59,0.81,6.12,2.4l0,0c1.52,1.59,2.29,3.74,2.29,6.4c0,2.66-0.77,4.83-2.29,6.44C31.72,42.81,29.66,43.63,27.13,43.63
						z M27.13,26.73c-2.31,0-4.19,0.73-5.57,2.18c-1.39,1.45-2.09,3.41-2.09,5.84c0,2.45,0.7,4.44,2.09,5.9
						c1.38,1.46,3.26,2.2,5.57,2.2c2.31,0,4.18-0.74,5.55-2.19c1.38-1.46,2.07-3.45,2.07-5.9c0-2.45-0.7-4.42-2.07-5.86
						C31.31,27.46,29.44,26.73,27.13,26.73z M27.13,38.95c-0.9,0-1.62-0.41-2.15-1.22c-0.5-0.75-0.75-1.76-0.75-2.99
						s0.25-2.23,0.75-2.97c0.53-0.79,1.26-1.19,2.15-1.19c0.89,0,1.62,0.4,2.15,1.19c0.5,0.74,0.75,1.74,0.75,2.97
						c0,1.23-0.25,2.23-0.75,2.99C28.75,38.54,28.02,38.95,27.13,38.95z M27.13,31.37c-0.63,0-1.12,0.28-1.5,0.85l0,0
						c-0.41,0.61-0.62,1.46-0.62,2.53c0,1.07,0.21,1.93,0.62,2.55c0.38,0.58,0.87,0.87,1.5,0.87c0.62,0,1.11-0.28,1.5-0.86
						c0.41-0.62,0.62-1.48,0.62-2.55c0-1.07-0.21-1.92-0.62-2.53C28.24,31.65,27.75,31.37,27.13,31.37z"/>
				</g>
			</g>
			<g>
				<path class="st11" d="M38.56,77.12c-0.95,0-1.86-0.43-2.45-1.18l-8.6-10.7l-13.65,1.48c-0.95,0.1-1.89-0.23-2.57-0.9
					c-0.67-0.67-1.01-1.62-0.9-2.57l1.48-13.65l-10.7-8.6C0.43,40.41,0,39.51,0,38.56c0-0.95,0.43-1.86,1.18-2.45l10.7-8.6
					l-1.48-13.65c-0.1-0.95,0.23-1.89,0.9-2.57c0.67-0.67,1.62-1,2.57-0.9l13.65,1.48l8.6-10.7C36.7,0.43,37.6,0,38.56,0l0,0
					c0.95,0,1.86,0.43,2.45,1.18l8.6,10.7l13.65-1.48c0.94-0.1,1.89,0.23,2.57,0.9c0.67,0.67,1.01,1.62,0.9,2.57l-1.48,13.65
					l10.7,8.6c0.74,0.6,1.18,1.5,1.18,2.45c0,0.95-0.43,1.86-1.18,2.45l-10.7,8.6l1.48,13.65c0.1,0.95-0.23,1.89-0.9,2.57
					c-0.67,0.67-1.62,1.01-2.57,0.9l-13.65-1.48l-8.6,10.7C40.41,76.68,39.51,77.12,38.56,77.12z M28.88,58.78
					c0.95,0,1.85,0.43,2.45,1.18l7.23,8.99l7.23-8.99c0.67-0.84,1.73-1.27,2.79-1.16l11.47,1.25L58.8,48.58
					c-0.12-1.07,0.32-2.12,1.16-2.79l8.99-7.23l-8.99-7.23c-0.84-0.67-1.27-1.73-1.16-2.79l1.25-11.47l-11.47,1.25
					c-1.06,0.12-2.12-0.32-2.79-1.16l-7.23-8.99l-7.23,8.99c-0.67,0.84-1.74,1.27-2.79,1.16l-11.47-1.25l1.25,11.47
					c0.12,1.07-0.32,2.12-1.16,2.79l-8.99,7.23l8.99,7.23c0.84,0.67,1.27,1.73,1.16,2.79l-1.25,11.47l11.47-1.25
					C28.65,58.79,28.77,58.78,28.88,58.78z"/>
			</g>
		</g>
	</g>
</g>
</svg>
